<?xml version="1.0" encoding="UTF-8"?>
<!-- Created with Inkscape (http://www.inkscape.org/) -->
<svg width="200" height="40" version="1.1" viewBox="0 0 200 40" xmlns="http://www.w3.org/2000/svg" xmlns:xlink="http://www.w3.org/1999/xlink">
 <defs>
  <radialGradient id="radialGradient992-1" cx="-136.67" cy="30" r="20" gradientTransform="matrix(-1.5 -4.0422e-5 6.1329e-7 -1.5 -165 64.995)" gradientUnits="userSpaceOnUse">
   <stop stop-color="#7fffd4" offset="0"/>
   <stop stop-color="#4614ff" offset="1"/>
  </radialGradient>
 </defs>
 <g>
  <path d="m20 0a20 20 0 0 0-20 20 20 20 0 0 0 20 20 20 20 0 0 0 20-20 20 20 0 0 0-20-20zm-0.01965 10a10 10 0 0 1 0.01965 0 10 10 0 0 1 10 10 10 10 0 0 1-10 10 10 10 0 0 1-10-10 10 10 0 0 1 9.9805-10z" fill="#4614ff"/>
  <rect x="30" y="1.1289e-5" width="10" height="20" fill="#4614ff"/>
  <path d="m20 0a20 20 0 0 0-20 20h10a10 10 0 0 1 9.9805-10 10 10 0 0 1 0.01965 0 10 10 0 0 1 10 10h10a20 20 0 0 0-20-20z" fill="url(#radialGradient992-1)"/>
 </g>
 <g transform="scale(1.0045 .99551)" fill="#e6e6e6" stroke-width="1.3393" aria-label="Attmic">
  <path d="m51.58 31.432-3.667 8.3294h-6.6007l16.135-36.618h6.6007l16.135 36.618h-6.6007l-3.667-8.3294zm15.821-5.7101-6.653-15.087-6.653 15.087z"/>
  <path d="m86.512 16.606v14.144q0 1.9907 1.0477 3.1956 1.0477 1.1525 2.9336 1.1525t3.6146-1.8335l2.4098 4.1385q-3.0908 2.7765-6.8626 2.7765-3.7194 0-6.3911-2.5669-2.6193-2.6193-2.6193-7.0198v-13.987h-3.5099v-4.7148h3.5099v-8.7485h5.8673v8.7485h7.3341v4.7148z"/>
  <path d="m104.52 16.606v14.144q0 1.9907 1.0477 3.1956 1.0477 1.1525 2.9336 1.1525t3.6146-1.8335l2.4098 4.1385q-3.0908 2.7765-6.8626 2.7765-3.7194 0-6.3911-2.5669-2.6193-2.6193-2.6193-7.0198v-13.987h-3.5099v-4.7148h3.5099v-8.7485h5.8673v8.7485h7.3341v4.7148z"/>
  <path d="m121.17 24.674v15.087h-5.8672v-27.869h5.8672v5.0815q1.2573-2.5669 3.7718-4.0337 2.5669-1.4668 5.5006-1.4668 6.6007 0 8.958 5.4482 4.1385-5.4482 10.32-5.4482 4.7148 0 7.596 2.8812 2.9336 2.8812 2.9336 8.3294v17.078h-5.8673v-15.297q0-7.7008-6.3911-7.7008-2.986 0-5.2386 1.9383-2.2002 1.8859-2.305 5.5529v15.506h-5.8672v-15.297q0-3.9814-1.4144-5.8149-1.4144-1.8859-4.4528-1.8859t-5.291 2.0431q-2.2526 1.9907-2.2526 5.8673z"/>
  <path d="m170.4 39.761h-5.8672v-27.869h5.8672zm-5.5006-33.422q-1.1001-1.1001-1.1001-2.6193t1.1001-2.6193q1.1001-1.1001 2.6193-1.1001t2.6193 1.1001q1.1001 1.1001 1.1001 2.6193t-1.1001 2.6193-2.6193 1.1001-2.6193-1.1001z"/>
  <path d="m187.37 40.18q-5.8149 0-10.006-3.929-4.1909-3.9814-4.1909-10.372 0-6.3911 4.3481-10.372 4.4004-4.0337 10.687-4.0337t10.634 4.3481l-3.4575 4.2433q-3.6146-3.1432-7.2817-3.1432-3.667 0-6.3911 2.4622-2.6717 2.4098-2.6717 6.2863 0 3.8242 2.6717 6.4959 2.6717 2.6717 6.5483 2.6717 3.929 0 7.3864-3.5623l3.4575 3.7718q-5.0815 5.1338-11.735 5.1338z"/>
 </g>
</svg>
