<?xml version="1.0" encoding="UTF-8" standalone="no"?>
<!-- Created with Inkscape (http://www.inkscape.org/) -->

<svg
   width="40"
   height="40"
   viewBox="0 0 40 40"
   version="1.1"
   id="svg278"
   inkscape:version="1.2.1 (0f2f062aeb, 2022-09-21, custom)"
   sodipodi:docname="logo"
   xmlns:inkscape="http://www.inkscape.org/namespaces/inkscape"
   xmlns:sodipodi="http://sodipodi.sourceforge.net/DTD/sodipodi-0.dtd"
   xmlns:xlink="http://www.w3.org/1999/xlink"
   xmlns="http://www.w3.org/2000/svg"
   xmlns:svg="http://www.w3.org/2000/svg">
  <sodipodi:namedview
     id="namedview280"
     pagecolor="#666666"
     bordercolor="#000000"
     borderopacity="0.25"
     inkscape:showpageshadow="2"
     inkscape:pageopacity="0"
     inkscape:pagecheckerboard="true"
     inkscape:deskcolor="#666666"
     inkscape:document-units="px"
     showgrid="false"
     inkscape:zoom="4.2835116"
     inkscape:cx="14.240652"
     inkscape:cy="53.11063"
     inkscape:window-width="923"
     inkscape:window-height="1016"
     inkscape:window-x="74"
     inkscape:window-y="27"
     inkscape:window-maximized="0"
     inkscape:current-layer="layer1" />
  <defs
     id="defs275">
    <radialGradient
       inkscape:collect="always"
       xlink:href="#linearGradient1186-4"
       id="radialGradient992-3"
       gradientUnits="userSpaceOnUse"
       gradientTransform="matrix(-1.4999997,-4.0422176e-5,6.1328909e-7,-1.4999995,-165.00029,64.99462)"
       cx="-136.66679"
       cy="30.000114"
       fx="-136.66679"
       fy="30.000114"
       r="20" />
    <linearGradient
       inkscape:collect="always"
       id="linearGradient1186-4">
      <stop
         style="stop-color:#7fffd4;stop-opacity:1"
         offset="0"
         id="stop1182" />
      <stop
         style="stop-color:#4614ff;stop-opacity:1"
         offset="1"
         id="stop1184" />
    </linearGradient>
  </defs>
  <g
     inkscape:label="Layer 1"
     inkscape:groupmode="layer"
     id="layer1">
    <path
       id="path980-3"
       style="fill:#4614ff;fill-opacity:1;stroke:none;stroke-width:0.133333;stroke-linejoin:bevel;stroke-opacity:1"
       d="M 19.999882,0 A 19.999993,19.999993 0 0 0 -1.12e-4,19.999994 19.999993,19.999993 0 0 0 19.999882,39.999984 19.999993,19.999993 0 0 0 39.999876,19.999994 19.999993,19.999993 0 0 0 19.999882,0 Z m -0.01965,9.999999 a 9.9999966,9.9999966 0 0 1 0.01965,0 9.9999966,9.9999966 0 0 1 9.999995,9.999995 9.9999966,9.9999966 0 0 1 -9.999995,9.999991 9.9999966,9.9999966 0 0 1 -9.9999991,-9.999991 9.9999966,9.9999966 0 0 1 9.9804701,-9.999995 z" />
    <rect
       style="fill:#4614ff;fill-opacity:1;stroke:none;stroke-width:0.133333;stroke-linejoin:bevel;stroke-opacity:1"
       id="rect982-5"
       width="9.9999962"
       height="19.999992"
       x="29.999855"
       y="-1.4530125e-05" />
    <path
       id="path984-6"
       style="fill:url(#radialGradient992-3);fill-opacity:1;stroke:none;stroke-width:0.133333;stroke-linejoin:bevel;stroke-opacity:1"
       d="M 19.999882,0 A 19.999993,19.999993 0 0 0 -1.12e-4,19.999994 h 9.9999949 a 9.9999966,9.9999966 0 0 1 9.9804701,-9.999995 9.9999966,9.9999966 0 0 1 0.01965,0 9.9999966,9.9999966 0 0 1 9.999992,9.999995 H 40 A 19.999993,19.999993 0 0 0 19.999882,0 Z" />
  </g>
</svg>
